<svg width="187" height="165" viewBox="0 0 187 165" fill="none" xmlns="http://www.w3.org/2000/svg">
<g clip-path="url(#clip0_2_239)">
<path d="M172.361 0.661011H15.2873C7.2443 0.661011 0.724121 7.34986 0.724121 15.601V150.06C0.724121 158.311 7.2443 165 15.2873 165H172.361C180.404 165 186.925 158.311 186.925 150.06V15.601C186.925 7.34986 180.404 0.661011 172.361 0.661011Z" fill="#0A2640" fill-opacity="0.8"/>
<path d="M21.824 29.1815C24.4507 29.1815 26.5801 27.0642 26.5801 24.4523C26.5801 21.8405 24.4507 19.7231 21.824 19.7231C19.1973 19.7231 17.0679 21.8405 17.0679 24.4523C17.0679 27.0642 19.1973 29.1815 21.824 29.1815Z" fill="#FC5B00"/>
<path d="M40.8484 29.1815C43.4752 29.1815 45.6046 27.0642 45.6046 24.4523C45.6046 21.8405 43.4752 19.7231 40.8484 19.7231C38.2217 19.7231 36.0923 21.8405 36.0923 24.4523C36.0923 27.0642 38.2217 29.1815 40.8484 29.1815Z" fill="#ECAA00"/>
<path d="M59.8728 29.1815C62.4996 29.1815 64.629 27.0642 64.629 24.4523C64.629 21.8405 62.4996 19.7231 59.8728 19.7231C57.2461 19.7231 55.1167 21.8405 55.1167 24.4523C55.1167 27.0642 57.2461 29.1815 59.8728 29.1815Z" fill="#009D10"/>
<path d="M35.0242 145.806C35.0242 148.462 32.9254 150.615 30.3363 150.615C27.7473 150.615 25.6484 148.462 25.6484 145.806V132.298C25.6484 129.642 27.7473 127.489 30.3363 127.489C32.9254 127.489 35.0242 129.642 35.0242 132.298V145.806Z" fill="#0DBBFC"/>
<path d="M53.7757 136.082C53.7757 138.738 51.6769 140.891 49.0878 140.891C46.4987 140.891 44.3999 138.738 44.3999 136.082V132.297C44.3999 129.641 46.4987 127.488 49.0878 127.488C51.6769 127.488 53.7757 129.641 53.7757 132.297V136.082Z" fill="#0DBBFC"/>
<path d="M72.5272 70.2764C72.5272 67.6203 70.4283 65.4672 67.8393 65.4672C65.2502 65.4672 63.1514 67.6203 63.1514 70.2764V122.679C63.1514 125.335 65.2502 127.488 67.8393 127.488C70.4283 127.488 72.5272 125.335 72.5272 122.679V70.2764Z" fill="#0DBBFC"/>
<path d="M91.2791 89.4609C91.2791 86.8049 89.1803 84.6517 86.5912 84.6517C84.0022 84.6517 81.9033 86.8049 81.9033 89.4609V122.679C81.9033 125.335 84.0022 127.489 86.5912 127.489C89.1803 127.489 91.2791 125.335 91.2791 122.679V89.4609Z" fill="#0DBBFC"/>
<path d="M110.032 49.7777C110.032 47.1216 107.933 44.9685 105.344 44.9685C102.755 44.9685 100.656 47.1216 100.656 49.7777V122.679C100.656 125.335 102.755 127.488 105.344 127.488C107.933 127.488 110.032 125.335 110.032 122.679V49.7777Z" fill="#95ABBC"/>
<path d="M128.783 73.9557C128.783 71.2996 126.684 69.1465 124.095 69.1465C121.506 69.1465 119.407 71.2996 119.407 73.9557V122.679C119.407 125.335 121.506 127.489 124.095 127.489C126.684 127.489 128.783 125.335 128.783 122.679V73.9557Z" fill="#0DBBFC"/>
<path d="M147.534 62.6551C147.534 59.9991 145.435 57.8459 142.846 57.8459C140.257 57.8459 138.158 59.9991 138.158 62.6551V122.679C138.158 125.335 140.257 127.489 142.846 127.489C145.435 127.489 147.534 125.335 147.534 122.679V62.6551Z" fill="#0DBBFC"/>
<path d="M166.285 100.499C166.285 97.8425 164.187 95.6893 161.598 95.6893C159.009 95.6893 156.91 97.8425 156.91 100.499V122.679C156.91 125.335 159.009 127.488 161.598 127.488C164.187 127.488 166.285 125.335 166.285 122.679V100.499Z" fill="#0DBBFC"/>
</g>
<defs>
<clipPath id="clip0_2_239">
<rect width="187" height="165" fill="white"/>
</clipPath>
</defs>
</svg>
