<svg width="34" height="35" viewBox="0 0 34 35" fill="none" xmlns="http://www.w3.org/2000/svg">
<g clip-path="url(#clip0_1037_370)">
<path d="M9.92451 3.16594C9.88712 3.0938 9.86431 3.01499 9.85738 2.93403C9.85045 2.85307 9.85954 2.77153 9.88414 2.69409C9.90873 2.61664 9.94834 2.5448 10.0007 2.48266C10.0531 2.42053 10.1172 2.36932 10.1893 2.33196C12.4036 1.20598 14.8632 0.648742 17.3466 0.710499C19.8299 0.772256 22.2588 1.45106 24.4144 2.68572C24.4851 2.72638 24.547 2.78063 24.5967 2.84536C24.6463 2.91008 24.6826 2.98399 24.7036 3.06282C24.7245 3.14166 24.7296 3.22385 24.7186 3.30467C24.7076 3.38548 24.6807 3.46332 24.6394 3.53369L17.5184 15.755C17.464 15.8486 17.386 15.9262 17.2922 15.9801C17.1983 16.0341 17.092 16.0623 16.9838 16.0622H16.968C16.8572 16.0592 16.7492 16.0266 16.6551 15.9678C16.5611 15.909 16.4846 15.8261 16.4334 15.7277L9.92451 3.16594ZM16.6018 19.3215V19.3203L10.0926 6.75849C10.017 6.61306 9.88693 6.50345 9.73079 6.45358C9.57466 6.4037 9.40514 6.41763 9.25923 6.49231C7.52446 7.38181 5.98244 8.60516 4.72166 10.0921C3.46088 11.5791 2.50618 13.3004 1.91234 15.1573C1.31851 17.0142 1.09723 18.9701 1.26121 20.9127C1.42519 22.8553 1.97121 24.7464 2.86791 26.4775C3.76462 28.2085 4.99436 29.7455 6.48656 31C7.97876 32.2546 9.70403 33.2022 11.5634 33.7883C13.4227 34.3744 15.3795 34.5875 17.3214 34.4155C19.2633 34.2434 21.1521 33.6896 22.8795 32.7857C23.0245 32.7097 23.1337 32.5794 23.1831 32.4233C23.2325 32.2672 23.2181 32.0978 23.1432 31.9522L16.6018 19.3215ZM24.2318 31.195L24.2813 31.2941C24.3562 31.4402 24.485 31.5513 24.6406 31.6038C24.7044 31.6249 24.7717 31.6333 24.8387 31.6285C24.9367 31.6258 25.0333 31.6048 25.1236 31.5666C25.3491 31.4549 25.5683 31.3308 25.7801 31.195C26.4101 30.8295 27.0106 30.4154 27.5761 29.9564H23.5877L24.2318 31.195ZM22.9436 28.7177H28.9263C29.3109 28.3312 29.6669 27.9173 29.9915 27.4791H22.2995L22.9436 28.7177ZM21.6678 26.2405H30.8709C31.1246 25.8428 31.3522 25.429 31.5522 25.0018H21.0237L21.6678 26.2405ZM20.3796 23.7632H32.0972C32.2615 23.3588 32.4021 22.9453 32.5183 22.5245H19.7355L20.3796 23.7632ZM19.0914 21.2859H32.828C32.9023 20.8771 32.9642 20.4684 33.0014 20.0473H18.4597L19.0914 21.2859ZM25.7306 5.62947C25.661 5.58624 25.5831 5.55835 25.5019 5.54767C25.4207 5.53699 25.3382 5.54377 25.2599 5.56754C25.1796 5.58586 25.1041 5.62065 25.038 5.66968C24.9719 5.71872 24.9167 5.78095 24.8759 5.85243L24.5415 6.4222H26.932C26.546 6.13666 26.1449 5.87204 25.7306 5.62947ZM28.4308 7.66084H23.823L23.1046 8.89948H29.6075C29.241 8.46287 28.8481 8.04921 28.4308 7.66084ZM30.5365 10.1381H22.3738L21.6554 11.3768H31.2921C31.0686 10.9472 30.8161 10.5334 30.5365 10.1381ZM31.8866 12.6154H20.937L20.2186 13.854H32.3697C32.2324 13.4323 32.0711 13.0187 31.8866 12.6154ZM32.7165 15.0927H19.4878L18.7694 16.3313H32.9394C32.8903 15.9143 32.8158 15.5007 32.7165 15.0927ZM33.0633 17.57H18.051L17.7537 18.0778C17.7 18.1673 17.6707 18.2692 17.6685 18.3734C17.6663 18.4777 17.6914 18.5808 17.7413 18.6724L17.8156 18.8086H33.0881C33.1005 18.6847 33.1005 18.5485 33.1005 18.4246C33.1005 18.1397 33.0881 17.8549 33.0633 17.57Z" fill="#0A2640"/>
<path d="M9.64002 5.88004C9.41297 5.44981 8.87859 5.28302 8.46176 5.5338C5.16189 7.51916 2.6965 10.6551 1.55309 14.3539C0.322716 18.3341 0.723843 22.6399 2.66822 26.3243C4.6126 30.0087 7.94096 32.7698 11.9211 34.0002C15.6199 35.1436 19.6001 34.8779 23.1013 33.2741C23.5436 33.0715 23.7074 32.5363 23.4804 32.106L16.5602 18.993L9.64002 5.88004Z" fill="#0A2640"/>
</g>
<defs>
<clipPath id="clip0_1037_370">
<rect width="32.745" height="34.8351" fill="white" transform="translate(0.573486 0.153809)"/>
</clipPath>
</defs>
</svg>
